<?xml version="1.0" encoding="UTF-8" standalone="no"?>
<!-- Created with Inkscape (http://www.inkscape.org/) -->

<svg
   version="1.1"
   id="svg1"
   width="983.35999"
   height="185.92"
   viewBox="0 0 983.35999 185.92"
   sodipodi:docname="001 hrntzl.svg"
   inkscape:version="1.3.1 (91b66b0783, 2023-11-16)"
   xmlns:inkscape="http://www.inkscape.org/namespaces/inkscape"
   xmlns:sodipodi="http://sodipodi.sourceforge.net/DTD/sodipodi-0.dtd"
   xmlns="http://www.w3.org/2000/svg"
   xmlns:svg="http://www.w3.org/2000/svg">
  <defs
     id="defs1">
    <rect
       x="217.88031"
       y="10.424895"
       width="753.71993"
       height="162.62837"
       id="rect3" />
    <rect
       x="725.35699"
       y="19.165937"
       width="122.36713"
       height="47.17769"
       id="rect49" />
    <rect
       x="260.9516"
       y="32.434662"
       width="843.30121"
       height="147.43028"
       id="rect48" />
  </defs>
  <sodipodi:namedview
     id="namedview1"
     pagecolor="#ffffff"
     bordercolor="#000000"
     borderopacity="0.25"
     inkscape:showpageshadow="2"
     inkscape:pageopacity="0.0"
     inkscape:pagecheckerboard="0"
     inkscape:deskcolor="#d1d1d1"
     inkscape:zoom="0.95924225"
     inkscape:cx="501.43746"
     inkscape:cy="17.201077"
     inkscape:window-width="1920"
     inkscape:window-height="1111"
     inkscape:window-x="-9"
     inkscape:window-y="-9"
     inkscape:window-maximized="1"
     inkscape:current-layer="g1" />
  <g
     inkscape:groupmode="layer"
     inkscape:label="Image"
     id="g1"
     style="display:inline">
    <ellipse
       style="display:inline;fill:#103294;fill-opacity:1;stroke-width:1.18471"
       id="ellipse29"
       cx="14.941071"
       cy="-68.236816"
       rx="13.943297"
       ry="14.147873"
       transform="scale(1,-1)" />
    <ellipse
       style="display:inline;fill:#103294;fill-opacity:1;stroke-width:1.18471"
       id="ellipse30"
       cx="15.309647"
       cy="-117.41451"
       rx="13.943297"
       ry="14.147873"
       transform="scale(1,-1)" />
    <ellipse
       style="display:inline;fill:#103294;fill-opacity:1;stroke-width:1.18471"
       id="ellipse31"
       cx="16.203918"
       cy="-166.74933"
       rx="13.943297"
       ry="14.147873"
       transform="scale(1,-1)" />
    <ellipse
       style="display:inline;fill:#7a8cc2;fill-opacity:1;stroke-width:1.18471"
       id="ellipse34"
       cx="15.098191"
       cy="-19.687622"
       rx="13.943297"
       ry="14.147873"
       transform="scale(1,-1)" />
    <ellipse
       style="fill:#103294;fill-opacity:1;stroke-width:1.07386"
       id="ellipse35"
       cx="64.328392"
       cy="-68.022446"
       rx="15.897965"
       ry="15.507031"
       transform="scale(1,-1)" />
    <ellipse
       style="fill:#103294;fill-opacity:1;stroke-width:1.07386"
       id="ellipse36"
       cx="64.696968"
       cy="-116.67444"
       rx="15.897965"
       ry="15.507031"
       transform="scale(1,-1)" />
    <ellipse
       style="fill:#103294;fill-opacity:1;stroke-width:1.07386"
       id="ellipse37"
       cx="64.696968"
       cy="-167.32643"
       rx="15.897965"
       ry="15.507031"
       transform="scale(1,-1)" />
    <ellipse
       style="fill:#103294;fill-opacity:1;stroke-width:1.17788"
       id="ellipse38"
       cx="115.56042"
       cy="-165.32643"
       rx="17.372269"
       ry="17.073479"
       transform="scale(1,-1)" />
    <ellipse
       style="fill:#103294;fill-opacity:1;stroke-width:1.17788"
       id="ellipse39"
       cx="115.56042"
       cy="-117.11129"
       rx="17.372269"
       ry="17.073479"
       transform="scale(1,-1)" />
    <ellipse
       style="fill:#103294;fill-opacity:1;stroke-width:1.17788"
       id="ellipse40"
       cx="115.56042"
       cy="-68.896149"
       rx="17.372269"
       ry="17.073479"
       transform="scale(1,-1)" />
    <ellipse
       style="fill:#103294;fill-opacity:1;stroke-width:1.17788"
       id="ellipse41"
       cx="115.56042"
       cy="-19.377895"
       rx="17.372269"
       ry="17.073479"
       transform="scale(1,-1)" />
    <ellipse
       style="fill:#103294;fill-opacity:1;stroke-width:1.26266"
       id="ellipse42"
       cx="167.62317"
       cy="-18.606886"
       rx="18.622766"
       ry="18.302469"
       transform="scale(1,-1)" />
    <ellipse
       style="fill:#103294;fill-opacity:1;stroke-width:1.26266"
       id="ellipse45"
       cx="167.62317"
       cy="-68.907005"
       rx="18.622766"
       ry="18.302469"
       transform="scale(1,-1)" />
    <ellipse
       style="display:inline;fill:#103294;fill-opacity:1;stroke-width:1.26266"
       id="ellipse46"
       cx="167.62317"
       cy="-118.16463"
       rx="18.622766"
       ry="18.302469"
       transform="scale(1,-1)" />
    <ellipse
       style="display:inline;fill:#103294;fill-opacity:1;stroke-width:1.26266"
       id="ellipse47"
       cx="167.62317"
       cy="-166.03416"
       rx="18.622766"
       ry="18.302469"
       transform="scale(1,-1)" />
    <ellipse
       style="fill:#103294;fill-opacity:1;stroke-width:1.07386"
       id="ellipse2"
       cx="64.328392"
       cy="-19.001877"
       rx="15.897965"
       ry="15.507031"
       transform="scale(1,-1)" />
    <ellipse
       style="fill:#103294;fill-opacity:1;stroke-width:1.07386"
       id="ellipse3"
       cx="64.328392"
       cy="-19.001877"
       rx="15.897965"
       ry="15.507031"
       transform="scale(1,-1)" />
    <path
       d="M 241.68079,95.889462 240.88746,78.43618 282.48067,35.256307 h 16.54662 l -34.56657,36.719892 -8.15997,8.953307 z M 228.53416,114.58941 V 35.256307 h 14.73329 v 79.333103 z m 55.30651,0 -30.37325,-36.15323 9.74664,-10.766635 37.85322,46.919865 z m 27.69322,0 35.6999,-79.333103 h 14.50662 l 35.81323,79.333103 H 382.14035 L 351.42711,43.076284 h 5.89331 l -30.59991,71.513126 z m 16.43329,-18.359949 3.96665,-11.559966 h 42.83987 l 3.96666,11.559966 z m 94.67315,18.359949 V 35.256307 h 32.63991 q 10.53997,0 18.01994,3.39999 7.59331,3.39999 11.6733,9.746638 4.07999,6.346648 4.07999,15.073289 0,8.726641 -4.07999,15.073289 -4.07999,6.233315 -11.6733,9.633305 -7.47997,3.286657 -18.01994,3.286657 h -24.47993 l 6.57331,-6.686647 v 29.806582 z m 51.90652,0 -20.05994,-28.786585 h 15.75328 l 20.17328,28.786585 z m -37.17323,-28.21992 -6.57331,-7.026646 h 23.79993 q 9.74664,0 14.61996,-4.193321 4.98665,-4.193321 4.98665,-11.673299 0,-7.593311 -4.98665,-11.673299 -4.87332,-4.079988 -14.61996,-4.079988 h -23.79993 l 6.57331,-7.253312 z m 83.11324,28.21992 V 35.256307 h 32.6399 q 10.53997,0 18.01995,3.39999 7.59331,3.39999 11.6733,9.746638 4.07999,6.346648 4.07999,15.073289 0,8.726641 -4.07999,15.073289 -4.07999,6.346648 -11.6733,9.746638 -7.47998,3.39999 -18.01995,3.39999 h -24.47992 l 6.57331,-6.913313 v 29.806582 z m 14.73329,-28.21992 -6.57331,-7.139979 h 23.79993 q 9.74663,0 14.61995,-4.079988 4.98665,-4.193321 4.98665,-11.673299 0,-7.593311 -4.98665,-11.673299 -4.87332,-4.079988 -14.61995,-4.079988 h -23.79993 l 6.57331,-7.253312 z m 95.01306,-18.13328 h 39.43989 v 12.126631 h -39.43989 z m 1.13333,33.9999 h 44.76654 v 12.3533 H 616.63325 V 35.256307 h 57.91317 v 12.353297 h -43.17988 z m 92.29313,12.3533 V 47.722937 h -26.29325 v -12.46663 h 67.3198 v 12.46663 h -26.29326 v 66.866473 z m 66.67977,0.79333 q -3.85332,0 -6.57331,-2.60666 -2.71999,-2.71999 -2.71999,-6.79998 0,-4.30665 2.71999,-6.799981 2.71999,-2.606659 6.57331,-2.606659 3.85333,0 6.57332,2.606659 2.71999,2.493331 2.71999,6.799981 0,4.07999 -2.71999,6.79998 -2.71999,2.60666 -6.57332,2.60666 z m 32.00002,-0.79333 35.6999,-79.333103 h 14.50662 l 35.81323,79.333103 H 892.94592 L 862.23268,43.076284 h 5.89332 l -30.59992,71.513126 z m 16.43329,-18.359949 3.96665,-11.559966 h 42.83988 l 3.96665,11.559966 z M 933.4459,114.58941 V 35.256307 h 14.73329 v 79.333103 z"
       id="text3"
       style="font-weight:600;font-size:113.333px;font-family:Montserrat;-inkscape-font-specification:'Montserrat Semi-Bold';letter-spacing:15px;white-space:pre"
       transform="translate(34,18.000005)"
       aria-label="KARPET.AI" />
  </g>
</svg>
